P1
252 6
100011110111100011100011011101000001100001000001100011100001100011000011100011000011000001000001100011011101000001000001011001011111000011000011100011000011100011000011100001000001011101011101010101011101011101000001111111111111110111111111111101110111
011001100111011101011101011101011111011111111011011101011101011101011101011101011101011111011111011111011101110111111011010111011111010101011101011101011101011101011101011111110111011101011101010101101011101011111011110111111111110111111111111011110111
010101110111111011111011000001000011000011110111100011100001000001000011011111011101000001000001010001000001110111111011001111011111010101011101011101000011010101000011100011110111011101011101010101110111110111110111111111111111110111000001110111000001
001101110111110111011101111101111101011101110111011101111101011101011101011101011101011111011111011101011101110111011011010111011111010101011101011101011111011011010111111101110111011101101011010101101011110111101111110111111111110111111111101111110111
100011000001000001100011111101000011100011110111100011111101011101000011100011000011000001011111100011011101000001100111011001000001010101011101100011011111100101011001000011110111100011110111100011011101110111000001111111110111110111111111011111110111
111111111111111111111111111111111111111111111111111111111111111111111111111111111111111111111111111111111111111111111111111111111111111111111111111111111111111111111111111111111111111111111111111111111111111111111111111111111111111111111111111111111111
